PathFileType	4	(X/Y/Z)	 s10c0102.trc
DataRate	CameraRate	NumFrames	NumMarkers	Units	OrigDataRate	OrigDataStartFrame	OrigNumFrames
200	200	5	50	mm	200	1	2000
Frame#	Time	racr			lacr			c7			jug			rlel			rdr			llel			ldr			s2			lic			ric			lasi			rasi			rpsi			lpsi			rgt			lgt			rth1			rth2			rth3			rth4			rlfc			rmfc			rsh1			rsh2			rsh3			rsh4			rlmal			rmmal			rcal			rtoe			rmt5			lth1			lth2			lth4			lth3			llfc			lmfc			llmal			lmmal			lcal			lmt5			lsh1			lsh2			lsh3			lsh4			ltoe			SBIKE			LBIKE			RBIKE			
		X1	Y1	Z1	X2	Y2	Z2	X3	Y3	Z3	X4	Y4	Z4	X5	Y5	Z5	X6	Y6	Z6	X7	Y7	Z7	X8	Y8	Z8	X9	Y9	Z9	X10	Y10	Z10	X11	Y11	Z11	X12	Y12	Z12	X13	Y13	Z13	X14	Y14	Z14	X15	Y15	Z15	X16	Y16	Z16	X17	Y17	Z17	X18	Y18	Z18	X19	Y19	Z19	X20	Y20	Z20	X21	Y21	Z21	X22	Y22	Z22	X23	Y23	Z23	X24	Y24	Z24	X25	Y25	Z25	X26	Y26	Z26	X27	Y27	Z27	X28	Y28	Z28	X29	Y29	Z29	X30	Y30	Z30	X31	Y31	Z31	X32	Y32	Z32	X33	Y33	Z33	X34	Y34	Z34	X35	Y35	Z35	X36	Y36	Z36	X37	Y37	Z37	X38	Y38	Z38	X39	Y39	Z39	X40	Y40	Z40	X41	Y41	Z41	X42	Y42	Z42	X43	Y43	Z43	X44	Y44	Z44	X45	Y45	Z45	X46	Y46	Z46	X47	Y47	Z47	X48	Y48	Z48	X49	Y49	Z49	X50	Y50	Z50	
1	0.0050	398.613931	1253.196840	-5.425048	416.458494	1256.397166	-356.635754	401.674417	1317.238691	-179.849835	406.240729	1174.040591	-178.585613	453.852254	1002.497210	59.959979	637.063001	880.980172	8.184157	472.304553	1002.641214	-448.871630	655.529702	889.730770	-379.978140	-109.663158	1108.729248	-220.741724	67.477248	1116.357448	-357.314879	63.341936	1113.693435	-74.194833	86.989842	1024.588708	-333.966425	50.166502	1029.401467	-74.861469	-67.625050	1163.427452	-160.741081	-52.262518	1168.531092	-270.218687	-62.472368	1017.164308	-23.865445	-33.686902	987.133315	-408.239422	38.476411	921.417918	7.518045	126.308462	906.937751	6.623046	191.109315	850.882078	9.441612	140.649130	941.075763	0.621350	297.067059	800.163653	-0.081151	305.298446	795.743079	-117.365934	253.384870	690.334861	14.940313	263.432625	603.617822	-3.997044	229.109920	525.706082	-19.197321	295.639551	604.329834	-25.936779	211.344500	428.479169	-44.953439	237.357509	451.913636	-121.790533	162.566928	404.016429	-95.757816	404.312327	397.129711	-79.453992	320.913321	366.078315	-22.025202	42.741362	879.954457	-422.981340	116.594409	835.870303	-410.219991	141.433197	860.866423	-400.484946	159.213348	758.250426	-405.392130	229.295873	673.772405	-386.897580	227.678825	667.288823	-267.529376	-33.320047	404.511614	-381.150156	-25.618882	403.659775	-298.839187	-97.618355	404.321313	-338.706008	25.779278	276.334959	-398.510470	134.568493	597.036844	-414.834601	102.355604	514.675812	-399.654015	31.324928	462.320095	-396.835890	126.615993	501.568228	-374.214649	108.610319	258.885402	-338.856315	-204.653794	834.655123	-225.112847	-78.414866	83.069765	-422.816956	-102.293772	81.308454	-24.072236	
2	0.0100	398.418230	1253.194214	-5.497281	416.468818	1256.449221	-356.653275	401.563584	1317.250061	-179.880215	406.141117	1174.064384	-178.647822	453.823005	1002.502239	59.890892	637.070989	880.963377	8.120761	472.232228	1002.716386	-448.873614	655.558460	889.726156	-380.040781	-109.740270	1108.631341	-220.896518	67.401062	1116.346880	-357.510102	63.255232	1113.655591	-74.420531	86.942879	1024.530766	-334.159891	50.125149	1029.333989	-75.005231	-67.731445	1163.382202	-160.956339	-52.332608	1168.466526	-270.368463	-62.539846	1017.075043	-24.044069	-33.735913	987.107036	-408.392337	38.373795	921.129183	7.343150	126.180198	906.655864	6.481664	190.909193	850.479388	9.263774	140.562906	940.760773	0.466424	296.844834	799.737759	-0.233773	304.988073	795.218868	-117.483492	253.168744	689.879639	14.780367	263.160213	603.232706	-4.102413	229.001733	525.303075	-19.284344	295.387739	603.951001	-26.041044	211.243804	428.026080	-44.978456	237.267423	451.532900	-121.709469	162.453118	403.629261	-95.732729	404.254134	396.967392	-79.459724	320.880922	365.805167	-22.021287	42.766025	879.977174	-423.111840	116.677277	836.000896	-410.382754	141.214854	860.387299	-401.498796	159.398944	758.445558	-405.519044	229.622532	674.021372	-387.003015	227.950057	667.519926	-267.575061	-33.188909	404.846329	-381.141524	-25.432101	403.901140	-298.872177	-97.483492	404.701318	-338.733545	25.770849	276.559497	-398.515106	134.854451	597.270258	-414.902386	102.541031	514.897295	-399.675606	31.495025	462.637815	-396.849334	126.855852	501.864189	-374.290091	108.568130	259.013999	-338.857840	-204.662612	834.669557	-225.114228	-78.430187	83.064837	-422.815822	-102.297875	81.312679	-24.080437	
3	0.0150	398.253892	1253.164426	-5.547812	416.483449	1256.462070	-356.634545	401.481462	1317.270368	-179.906902	406.048405	1174.054855	-178.689566	453.802588	1002.466244	59.809040	637.064367	880.978387	8.076083	472.303697	1002.748108	-448.900612	655.593909	889.734850	-380.099070	-109.780515	1108.564424	-221.033439	67.353446	1116.319535	-357.703900	63.189097	1113.622624	-74.594050	86.923883	1024.513987	-334.323337	50.086814	1029.241102	-75.238529	-67.811311	1163.327888	-161.138210	-52.381697	1168.403558	-270.507671	-62.610258	1016.957219	-24.195803	-33.794072	987.067578	-408.535598	38.311832	920.895527	7.133912	126.079388	906.414149	6.341235	190.728288	850.107153	9.068420	140.488933	940.451910	0.290565	296.643133	799.366300	-0.354337	304.625291	794.734798	-117.586667	252.908828	689.451991	14.639831	262.916461	602.861303	-4.191682	228.910389	524.853303	-19.344159	295.183939	603.464186	-26.145862	211.143447	427.605690	-45.016871	237.150246	451.165046	-121.792146	162.369984	403.004688	-95.795064	404.183724	396.808084	-79.459511	320.862910	365.551859	-22.043548	42.809166	880.008363	-423.228915	116.763002	836.097257	-410.485101	141.567211	861.148116	-400.760500	159.553318	758.594078	-405.645889	229.926426	674.194326	-387.087852	228.268563	667.752099	-267.664943	-33.068455	405.160736	-381.179036	-25.313446	404.161683	-298.907016	-97.359660	405.077433	-338.749461	25.755567	276.791024	-398.508782	135.137124	597.497098	-414.995906	102.755844	515.137909	-399.743502	31.660748	462.932316	-396.896701	127.070611	502.087852	-374.352579	108.522191	259.136532	-338.880048	-204.679875	834.681455	-225.128577	-78.417222	83.056603	-422.828950	-102.305476	81.318082	-24.081979	
4	0.0200	398.095654	1253.141834	-5.607965	416.595333	1256.275239	-356.017102	401.516326	1317.455838	-180.038496	405.947941	1174.078526	-178.765151	453.780850	1002.453149	59.743980	637.081663	880.960988	8.044341	472.504931	1003.049991	-448.871002	655.633319	889.720064	-380.095002	-109.823656	1108.470003	-221.176750	67.288219	1116.319855	-357.890667	63.221912	1113.640958	-74.766431	86.892304	1024.488132	-334.504852	50.059302	1029.199086	-75.389010	-67.836562	1163.192956	-161.454523	-52.361704	1168.833348	-270.225059	-62.632675	1016.767936	-24.362405	-33.836412	987.041847	-408.663364	38.256167	920.660621	6.969262	126.223039	906.012249	6.226723	192.179398	851.320675	8.931267	140.411021	940.170078	0.148176	296.396247	798.903843	-0.528261	304.289789	794.208786	-117.753806	252.646262	689.076138	14.519779	262.856571	602.569651	-4.664608	228.858481	524.337385	-19.409710	295.029624	603.147888	-26.242851	210.967338	427.321146	-44.985535	237.030658	450.594335	-121.945040	162.419553	402.430658	-95.872824	404.118580	396.658643	-79.459687	320.875541	365.275880	-22.039475	42.843332	880.042599	-423.367703	116.841607	836.196806	-410.606702	141.612283	861.455306	-401.094570	160.232628	759.157229	-405.848744	230.194640	674.356281	-387.215379	228.613155	667.953201	-267.791296	-32.987689	405.435362	-381.200755	-25.254499	404.508961	-298.936541	-97.242601	405.433581	-338.768421	25.723155	277.013464	-398.523553	136.013644	597.471452	-414.801184	102.963809	515.366027	-399.757926	31.683549	463.391030	-396.813616	126.058306	501.528333	-372.928837	108.483351	259.213244	-338.859235	-204.621098	834.731860	-224.786243	-78.422848	83.061026	-422.832312	-102.278618	81.295998	-24.074253	
5	0.0250	397.969255	1253.071862	-5.695221	416.598526	1256.250489	-356.071400	401.420468	1317.286874	-180.100989	405.831944	1173.930698	-178.493416	453.944151	1002.632768	59.927722	636.809143	880.015065	8.161504	472.068977	1002.067519	-448.608566	655.675771	889.609911	-379.746062	-110.493216	1107.659171	-220.963285	67.635352	1115.595195	-358.535826	63.209288	1113.598295	-74.907801	87.156613	1023.721965	-335.057449	49.983326	1029.080138	-75.725730	-68.073879	1163.247512	-161.384014	-52.469580	1168.755896	-270.196088	-62.514230	1016.828258	-24.206210	-33.857586	986.619924	-409.050083	38.289751	920.590342	6.851660	126.292018	905.899464	6.209993	192.127495	850.968331	8.800915	140.472069	940.088392	0.239902	296.201761	798.528289	-0.650878	303.992553	793.747725	-117.571221	252.623372	688.770814	14.498483	262.874555	602.014563	-4.607066	228.913182	523.983066	-19.276514	294.881119	602.865216	-26.075920	210.851466	426.281911	-45.241608	236.888236	450.368038	-121.887457	162.083577	402.380247	-95.264943	404.081772	396.464033	-79.549840	320.952127	365.117017	-21.907522	42.840114	879.489473	-423.578863	116.631976	835.471864	-410.383503	141.298491	860.609906	-400.849367	160.379695	758.487566	-406.310495	230.137619	673.552963	-386.905346	228.972156	668.342743	-267.744981	-33.307158	405.051223	-381.175708	-25.503189	404.122429	-299.019870	-97.388554	405.160995	-338.816567	25.393910	276.389712	-398.591787	136.479562	596.842383	-415.239351	103.180838	515.419039	-399.685394	31.770879	462.815154	-396.952565	126.267440	501.591479	-372.762945	108.091414	258.240132	-338.453174	-204.850427	833.932163	-224.618624	-78.506605	81.795147	-423.833213	-102.692420	80.572375	-24.362297	
